<svg width="572" height="758" viewBox="0 0 572 758" fill="none" xmlns="http://www.w3.org/2000/svg">
<g opacity="0.149994">
<path fill-rule="evenodd" clip-rule="evenodd" d="M317.667 247.333C419.404 271.653 471.656 346.947 480.333 454C489.405 565.927 393.288 663.717 282.465 681.983C255.449 686.435 224.143 685.845 197.001 683.792C126.144 678.428 57.1373 658.08 7.36798 605.348C3.52798 601.279 17.1626 610.312 13.6666 606C62.2933 689.249 137.444 732.143 243.389 731.915C399.583 731.576 525.931 608.895 525.604 457.908C525.481 401.719 512.527 356.079 473.179 314.392C427.237 265.72 382.851 254.045 317.667 247.333Z" fill="black"/>
</g>
<g opacity="0.149994">
<path d="M375.745 371.171C375.745 432.381 326.125 482.001 264.915 482.001C203.707 482.001 154.087 432.381 154.087 371.171C154.087 309.962 203.707 260.343 264.915 260.343C326.125 260.343 375.745 309.962 375.745 371.171Z" fill="black"/>
</g>
<g opacity="0.149994">
<path fill-rule="evenodd" clip-rule="evenodd" d="M227.521 525.984C127.227 500.546 50.8701 378.821 51.6754 271.308C52.4554 166.988 120.601 87.6237 216.759 60.6504C312.862 33.6944 468.591 62.1637 530.847 131.332C536.986 138.144 548.437 139.885 553.666 147.333C508.13 58.1331 401.986 0.6584 280.226 0.765066C126.723 0.8984 1.36879 122.385 0.226123 274.98C-0.181877 329.421 11.4541 395.698 48.3328 436.666C93.5568 486.901 162.687 518.832 227.521 525.984Z" fill="black"/>
</g>
<path fill-rule="evenodd" clip-rule="evenodd" d="M246.163 526.315C141.117 500.35 63.7734 407.759 64.5948 298.099C65.3921 191.695 139.521 102.463 240.225 74.9698C340.871 47.4951 482.616 80.2018 547.832 150.763C554.263 157.712 560.188 165.016 565.667 172.614C517.957 81.6231 420.723 18.9378 308.079 18.0938C147.315 16.8911 16.0481 142.086 14.8827 297.727C14.4681 353.256 26.8774 404.246 65.5094 446.04C112.884 497.287 178.259 519.007 246.163 526.315Z" fill="#F37336"/>
<path d="M246.163 526.315C141.117 500.35 63.7734 407.759 64.5948 298.099C65.3921 191.695 139.521 102.463 240.225 74.9698C340.871 47.4951 482.616 80.2018 547.832 150.763C554.263 157.712 560.188 165.016 565.667 172.614C517.957 81.6231 420.723 18.9378 308.079 18.0938C147.315 16.8911 16.0481 142.086 14.8827 297.727C14.4681 353.256 26.8774 404.246 65.5094 446.04C112.884 497.287 178.259 519.007 246.163 526.315Z" stroke="#F37336" stroke-width="13.3333" stroke-miterlimit="10"/>
<path fill-rule="evenodd" clip-rule="evenodd" d="M319.445 241.895C424.62 267.036 502.691 358.748 502.927 468.223C503.177 583.977 416.321 680.268 302.084 699.096C274.236 703.685 241.964 703.077 213.985 700.96C140.945 695.432 69.8106 674.456 18.508 620.097C14.5493 615.905 10.78 611.579 7.17731 607.133C57.3026 692.947 152.593 750.801 261.803 750.565C422.809 750.216 553.052 623.756 552.715 468.115C552.589 410.195 539.233 363.147 498.675 320.177C451.316 270.004 386.639 248.813 319.445 241.895Z" fill="#FED026"/>
<path d="M319.445 241.895C424.62 267.036 502.691 358.748 502.927 468.223C503.177 583.977 416.321 680.268 302.084 699.096C274.236 703.685 241.964 703.077 213.985 700.96C140.945 695.432 69.8106 674.456 18.508 620.097C14.5493 615.905 10.78 611.579 7.17731 607.133C57.3026 692.947 152.593 750.801 261.803 750.565C422.809 750.216 553.052 623.756 552.715 468.115C552.589 410.195 539.233 363.147 498.675 320.177C451.316 270.004 386.639 248.813 319.445 241.895Z" stroke="#FED026" stroke-width="13.3333" stroke-miterlimit="10"/>
<path d="M167 379.333C167 438.98 215.355 487.333 275 487.333C334.645 487.333 383 438.98 383 379.333C383 319.687 334.645 271.333 275 271.333C215.355 271.333 167 319.687 167 379.333Z" fill="url(#paint0_linear_2_44)"/>
<defs>
<linearGradient id="paint0_linear_2_44" x1="167" y1="379.333" x2="383" y2="379.333" gradientUnits="userSpaceOnUse">
<stop stop-color="#F27337"/>
<stop offset="1" stop-color="#FDD021"/>
</linearGradient>
</defs>
</svg>
